# Blender 4.3.0
# www.blender.org
o error
v -1.053000 0.384800 0.100000
v -0.947000 0.215200 0.100000
v -1.053000 0.384800 -0.100000
v -0.947000 0.215200 -0.100000
v 1.053000 0.384800 0.100000
v 0.947000 0.215200 0.100000
v 1.053000 0.384800 -0.100000
v 0.947000 0.215200 -0.100000
v 0.841053 0.504916 0.100000
v 0.630388 0.599004 0.100000
v 0.420217 0.666725 0.100000
v 0.210133 0.707615 0.100000
v 0.000000 0.721293 0.100000
v -0.210133 0.707615 0.100000
v -0.420217 0.666725 0.100000
v -0.630388 0.599004 0.100000
v -0.841052 0.504916 0.100000
v -0.750844 0.326415 0.100000
v -0.558807 0.412252 0.100000
v -0.370329 0.473047 0.100000
v -0.184465 0.509268 0.100000
v 0.000000 0.521293 0.100000
v 0.184465 0.509268 0.100000
v 0.370329 0.473047 0.100000
v 0.558807 0.412252 0.100000
v 0.750844 0.326415 0.100000
v -0.750844 0.326415 -0.100000
v -0.558807 0.412252 -0.100000
v -0.370329 0.473047 -0.100000
v -0.184465 0.509268 -0.100000
v 0.000000 0.521293 -0.100000
v 0.184465 0.509268 -0.100000
v 0.370329 0.473047 -0.100000
v 0.558807 0.412252 -0.100000
v 0.750844 0.326415 -0.100000
v -0.841052 0.504916 -0.100000
v -0.630388 0.599004 -0.100000
v -0.420217 0.666725 -0.100000
v -0.210133 0.707615 -0.100000
v 0.000000 0.721293 -0.100000
v 0.210133 0.707615 -0.100000
v 0.420217 0.666725 -0.100000
v 0.630388 0.599004 -0.100000
v 0.841053 0.504916 -0.100000
v 0.400000 1.200000 -0.100000
v 0.600000 1.200000 -0.100000
v 0.400000 1.400000 -0.100000
v 0.600000 1.400000 -0.100000
v -0.600000 1.200000 -0.100000
v -0.400000 1.200000 -0.100000
v -0.600000 1.400000 -0.100000
v -0.400000 1.400000 -0.100000
v 0.400000 1.400000 0.100000
v 0.400000 1.200000 0.100000
v 0.600000 1.200000 0.100000
v 0.600000 1.400000 0.100000
v -0.600000 1.400000 0.100000
v -0.600000 1.200000 0.100000
v -0.400000 1.200000 0.100000
v -0.400000 1.400000 0.100000
vn -0.8480 -0.5300 -0.0000
vn 0.8480 -0.5300 -0.0000
vn -0.0000 -0.0000 1.0000
vn -0.4932 -0.8699 -0.0000
vn -0.0000 -0.0000 -1.0000
vn 0.4931 0.8700 -0.0000
vn -0.4081 -0.9129 -0.0000
vn -0.3070 -0.9517 -0.0000
vn -0.1913 -0.9815 -0.0000
vn -0.0651 -0.9979 -0.0000
vn 0.0651 -0.9979 -0.0000
vn 0.1913 -0.9815 -0.0000
vn 0.3070 -0.9517 -0.0000
vn 0.4081 -0.9129 -0.0000
vn 0.4932 -0.8699 -0.0000
vn 0.4078 0.9131 -0.0000
vn 0.3067 0.9518 -0.0000
vn 0.1911 0.9816 -0.0000
vn 0.0650 0.9979 -0.0000
vn -0.0650 0.9979 -0.0000
vn -0.1911 0.9816 -0.0000
vn -0.3067 0.9518 -0.0000
vn -0.4078 0.9131 -0.0000
vn -0.4931 0.8700 -0.0000
vn -0.0000 -1.0000 -0.0000
vn 1.0000 -0.0000 -0.0000
vn -0.0000 1.0000 -0.0000
vn -1.0000 -0.0000 -0.0000
vt 0.000000 0.000000
vt 0.000000 0.062500
vt 0.062500 0.062500
vt 0.062500 -0.000000
vt 0.625000 0.062500
vt 0.562500 0.062500
vt 0.562500 0.000000
vt 0.625000 0.000000
vt 0.500000 0.062500
vt 0.500000 0.000000
vt 0.437500 0.062500
vt 0.437500 0.000000
vt 0.375000 0.062500
vt 0.375000 0.000000
vt 0.312500 0.062500
vt 0.312500 0.000000
vt 0.250000 0.062500
vt 0.250000 0.000000
vt 0.187500 0.062500
vt 0.187500 0.000000
vt 0.125000 0.062500
vt 0.125000 0.000000
s 0
f 2/1/1 1/2/1 3/3/1
f 7/4/2 5/1/2 6/2/2
f 5/5/3 9/6/3 26/7/3
f 8/5/4 6/8/4 26/7/4
f 7/2/5 8/1/5 35/4/5
f 5/5/6 7/8/6 44/7/6
f 9/6/3 10/9/3 25/10/3
f 10/9/3 11/11/3 24/12/3
f 11/11/3 12/13/3 23/14/3
f 12/13/3 13/15/3 22/16/3
f 22/16/3 13/15/3 14/17/3
f 21/18/3 14/17/3 15/19/3
f 20/20/3 15/19/3 16/21/3
f 19/22/3 16/21/3 17/3/3
f 18/4/3 17/3/3 1/2/3
f 26/7/7 25/10/7 34/9/7
f 25/10/8 24/12/8 33/11/8
f 24/12/9 23/14/9 32/13/9
f 23/14/10 22/16/10 31/15/10
f 31/15/11 22/16/11 21/18/11
f 30/17/12 21/18/12 20/20/12
f 29/19/13 20/20/13 19/22/13
f 28/21/14 19/22/14 18/4/14
f 27/3/15 18/4/15 2/1/15
f 44/3/5 35/4/5 34/22/5
f 43/21/5 34/22/5 33/20/5
f 42/19/5 33/20/5 32/18/5
f 41/17/5 32/18/5 31/16/5
f 31/16/5 30/14/5 39/13/5
f 30/14/5 29/12/5 38/11/5
f 29/12/5 28/10/5 37/9/5
f 28/10/5 27/7/5 36/6/5
f 27/7/5 4/8/5 3/5/5
f 9/6/16 44/7/16 43/10/16
f 10/9/17 43/10/17 42/12/17
f 11/11/18 42/12/18 41/14/18
f 12/13/19 41/14/19 40/16/19
f 13/15/20 40/16/20 39/18/20
f 39/18/21 38/20/21 15/19/21
f 38/20/22 37/22/22 16/21/22
f 37/22/23 36/4/23 17/3/23
f 17/3/24 36/4/24 3/1/24
f 52/3/5 49/1/5 51/2/5
f 56/3/3 54/1/3 55/4/3
f 60/3/3 58/1/3 59/4/3
f 55/4/25 45/2/25 46/3/25
f 56/2/26 46/4/26 48/3/26
f 59/4/25 49/2/25 50/3/25
f 53/1/27 48/3/27 47/2/27
f 45/4/28 53/2/28 47/3/28
f 49/4/28 57/2/28 51/3/28
f 57/1/27 52/3/27 51/2/27
f 60/2/26 50/4/26 52/3/26
f 48/3/5 45/1/5 47/2/5
f 2/1/1 3/3/1 4/4/1
f 7/4/2 6/2/2 8/3/2
f 5/5/3 26/7/3 6/8/3
f 8/5/4 26/7/4 35/6/4
f 7/2/5 35/4/5 44/3/5
f 5/5/6 44/7/6 9/6/6
f 9/6/3 25/10/3 26/7/3
f 10/9/3 24/12/3 25/10/3
f 11/11/3 23/14/3 24/12/3
f 12/13/3 22/16/3 23/14/3
f 22/16/3 14/17/3 21/18/3
f 21/18/3 15/19/3 20/20/3
f 20/20/3 16/21/3 19/22/3
f 19/22/3 17/3/3 18/4/3
f 18/4/3 1/2/3 2/1/3
f 26/7/7 34/9/7 35/6/7
f 25/10/8 33/11/8 34/9/8
f 24/12/9 32/13/9 33/11/9
f 23/14/10 31/15/10 32/13/10
f 31/15/11 21/18/11 30/17/11
f 30/17/12 20/20/12 29/19/12
f 29/19/13 19/22/13 28/21/13
f 28/21/14 18/4/14 27/3/14
f 27/3/15 2/1/15 4/2/15
f 44/3/5 34/22/5 43/21/5
f 43/21/5 33/20/5 42/19/5
f 42/19/5 32/18/5 41/17/5
f 41/17/5 31/16/5 40/15/5
f 31/16/5 39/13/5 40/15/5
f 30/14/5 38/11/5 39/13/5
f 29/12/5 37/9/5 38/11/5
f 28/10/5 36/6/5 37/9/5
f 27/7/5 3/5/5 36/6/5
f 9/6/16 43/10/16 10/9/16
f 10/9/17 42/12/17 11/11/17
f 11/11/18 41/14/18 12/13/18
f 12/13/19 40/16/19 13/15/19
f 13/15/20 39/18/20 14/17/20
f 39/18/21 15/19/21 14/17/21
f 38/20/22 16/21/22 15/19/22
f 37/22/23 17/3/23 16/21/23
f 17/3/24 3/1/24 1/2/24
f 52/3/5 50/4/5 49/1/5
f 56/3/3 53/2/3 54/1/3
f 60/3/3 57/2/3 58/1/3
f 55/4/25 54/1/25 45/2/25
f 56/2/26 55/1/26 46/4/26
f 59/4/25 58/1/25 49/2/25
f 53/1/27 56/4/27 48/3/27
f 45/4/28 54/1/28 53/2/28
f 49/4/28 58/1/28 57/2/28
f 57/1/27 60/4/27 52/3/27
f 60/2/26 59/1/26 50/4/26
f 48/3/5 46/4/5 45/1/5
