{
	"asset":{
		"generator":"Khronos glTF Blender I/O v4.4.56",
		"version":"2.0"
	},
	"extensionsUsed":[
	],
	"scene":0,
	"scenes":[
		{
			"name":"Scene",
			"nodes":[
				0,
				1,
				2,
				3
			]
		}
	],
	"nodes":[
		{
			"mesh":0,
			"name":"Bushes",
			"rotation":[
				0.4999999701976776,
				-0.4999999701976776,
				0.5,
				0.5
			]
		},
		{
			"mesh":1,
			"name":"Fountain",
			"rotation":[
				0.4999999701976776,
				-0.4999999701976776,
				0.5,
				0.5
			]
		},
		{
			"mesh":2,
			"name":"Brick area",
			"rotation":[
				0.4999999701976776,
				-0.4999999701976776,
				0.5,
				0.5
			]
		},
		{
			"mesh":3,
			"name":"Grass area",
			"rotation":[
				0.4999999701976776,
				-0.4999999701976776,
				0.5,
				0.5
			]
		}
	],
	"materials":[
		{
			"alphaMode":"BLEND",
			"doubleSided":false,
			"extensions":{
				"KHR_materials_specular":{
					"specularColorFactor":[
						2.0,
						2.0,
						2.0
					]
				}
			},
			"name":"Bush",
			"normalTexture":{
				"index":0,
				"scale":0.30000001192092896
			},
			"pbrMetallicRoughness":{
				"baseColorTexture":{
					"index":1
				},
				"metallicFactor":0,
				"metallicRoughnessTexture":{
					"index":2
				}
			}
		},
		{
			"doubleSided":false,
			"name":"Stone",
			"normalTexture":{
				"index":3
			},
			"pbrMetallicRoughness":{
				"baseColorTexture":{
					"index":4
				},
				"metallicFactor":0,
				"metallicRoughnessTexture":{
					"index":5
				}
			}
		},
		{
			"doubleSided":false,
			"name":"Brick",
			"normalTexture":{
				"index":6
			},
			"pbrMetallicRoughness":{
				"baseColorTexture":{
					"index":7
				},
				"metallicFactor":0,
				"metallicRoughnessTexture":{
					"index":8
				}
			}
		},
		{
			"doubleSided":false,
			"name":"Grass",
			"normalTexture":{
				"index":9,
				"scale":0.30000001192092896
			},
			"pbrMetallicRoughness":{
				"baseColorTexture":{
					"index":10
				},
				"metallicFactor":0,
				"metallicRoughnessTexture":{
					"index":11
				}
			}
		}
	],
	"meshes":[
		{
			"name":"Bushes",
			"primitives":[
				{
					"attributes":{
						"POSITION":0,
						"NORMAL":1,
						"TEXCOORD_0":2
					},
					"indices":3,
					"material":0
				}
			]
		},
		{
			"name":"Fountain",
			"primitives":[
				{
					"attributes":{
						"POSITION":4,
						"NORMAL":5,
						"TEXCOORD_0":6
					},
					"indices":7,
					"material":1
				}
			]
		},
		{
			"name":"Brick Area",
			"primitives":[
				{
					"attributes":{
						"POSITION":8,
						"NORMAL":9,
						"TEXCOORD_0":10
					},
					"indices":11,
					"material":2
				}
			]
		},
		{
			"name":"Grass Area",
			"primitives":[
				{
					"attributes":{
						"POSITION":12,
						"NORMAL":13,
						"TEXCOORD_0":14
					},
					"indices":15,
					"material":3
				},
				{
					"attributes":{
						"POSITION":16,
						"NORMAL":17,
						"TEXCOORD_0":18
					},
					"indices":19,
					"material":1
				}
			]
		}
	],
	"textures":[
		{
			"sampler":0,
			"source":0
		},
		{
			"sampler":0,
			"source":1
		},
		{
			"sampler":0,
			"source":2
		},
		{
			"sampler":0,
			"source":3
		},
		{
			"sampler":0,
			"source":4
		},
		{
			"sampler":0,
			"source":5
		},
		{
			"sampler":0,
			"source":6
		},
		{
			"sampler":0,
			"source":7
		},
		{
			"sampler":0,
			"source":8
		},
		{
			"sampler":0,
			"source":9
		},
		{
			"sampler":0,
			"source":10
		},
		{
			"sampler":0,
			"source":11
		}
	],
	"images":[
		{
			"mimeType":"image/png",
			"name":"bush_normal.png",
			"uri":"../textures/bush/bush_normal.png"
		},
		{
			"mimeType":"image/png",
			"name":"bush_diffuse.png",
			"uri":"../textures/bush/bush_diffuse.png"
		},
		{
			"mimeType":"image/png",
			"name":"bush_rm.png",
			"uri":"../textures/bush/bush_rm.png"
		},
		{
			"mimeType":"image/png",
			"name":"stone_normal.png",
			"uri":"../textures/stone/stone_normal.png"
		},
		{
			"mimeType":"image/png",
			"name":"stone_diffuse.png",
			"uri":"../textures/stone/stone_diffuse.png"
		},
		{
			"mimeType":"image/png",
			"name":"stone_rm.png",
			"uri":"../textures/stone/stone_rm.png"
		},
		{
			"mimeType":"image/png",
			"name":"brick_normal.png",
			"uri":"../textures/brick/brick_normal.png"
		},
		{
			"mimeType":"image/png",
			"name":"brick_diffuse.png",
			"uri":"../textures/brick/brick_diffuse.png"
		},
		{
			"mimeType":"image/png",
			"name":"brick_rm.png",
			"uri":"../textures/brick/brick_rm.png"
		},
		{
			"mimeType":"image/png",
			"name":"grass_normal.png",
			"uri":"../textures/grass/grass_normal.png"
		},
		{
			"mimeType":"image/png",
			"name":"grass_diffuse.png",
			"uri":"../textures/grass/grass_diffuse.png"
		},
		{
			"mimeType":"image/png",
			"name":"grass_rm.png",
			"uri":"../textures/grass/grass_rm.png"
		}
	],
	"accessors":[
		{
			"bufferView":0,
			"componentType":5126,
			"count":2260,
			"max":[
				12.09332275390625,
				-30.920001983642578,
				-1.9999899864196777
			],
			"min":[
				-12.973390579223633,
				-56.035797119140625,
				-3.3999929428100586
			],
			"type":"VEC3"
		},
		{
			"bufferView":1,
			"componentType":5126,
			"count":2260,
			"type":"VEC3"
		},
		{
			"bufferView":2,
			"componentType":5126,
			"count":2260,
			"type":"VEC2"
		},
		{
			"bufferView":3,
			"componentType":5123,
			"count":3312,
			"type":"SCALAR"
		},
		{
			"bufferView":4,
			"componentType":5126,
			"count":950,
			"max":[
				1.5,
				-14,
				-1.9999979734420776
			],
			"min":[
				-2.5,
				-18,
				-4.899998188018799
			],
			"type":"VEC3"
		},
		{
			"bufferView":5,
			"componentType":5126,
			"count":950,
			"type":"VEC3"
		},
		{
			"bufferView":6,
			"componentType":5126,
			"count":950,
			"type":"VEC2"
		},
		{
			"bufferView":7,
			"componentType":5123,
			"count":1626,
			"type":"SCALAR"
		},
		{
			"bufferView":8,
			"componentType":5126,
			"count":244,
			"max":[
				14.5,
				3,
				1.9999999949504854e-06
			],
			"min":[
				-15.5,
				-31,
				-7.999998092651367
			],
			"type":"VEC3"
		},
		{
			"bufferView":9,
			"componentType":5126,
			"count":244,
			"type":"VEC3"
		},
		{
			"bufferView":10,
			"componentType":5126,
			"count":244,
			"type":"VEC2"
		},
		{
			"bufferView":11,
			"componentType":5123,
			"count":462,
			"type":"SCALAR"
		},
		{
			"bufferView":12,
			"componentType":5126,
			"count":107,
			"max":[
				12,
				-31,
				-1.9999910593032837
			],
			"min":[
				-13,
				-56,
				-3.999993085861206
			],
			"type":"VEC3"
		},
		{
			"bufferView":13,
			"componentType":5126,
			"count":107,
			"type":"VEC3"
		},
		{
			"bufferView":14,
			"componentType":5126,
			"count":107,
			"type":"VEC2"
		},
		{
			"bufferView":15,
			"componentType":5123,
			"count":258,
			"type":"SCALAR"
		},
		{
			"bufferView":16,
			"componentType":5126,
			"count":20,
			"max":[
				12,
				-31,
				-1.9999910593032837
			],
			"min":[
				-13,
				-56,
				-1.9999929666519165
			],
			"type":"VEC3"
		},
		{
			"bufferView":17,
			"componentType":5126,
			"count":20,
			"type":"VEC3"
		},
		{
			"bufferView":18,
			"componentType":5126,
			"count":20,
			"type":"VEC2"
		},
		{
			"bufferView":19,
			"componentType":5123,
			"count":54,
			"type":"SCALAR"
		}
	],
	"bufferViews":[
		{
			"buffer":0,
			"byteLength":27120,
			"byteOffset":0,
			"target":34962
		},
		{
			"buffer":0,
			"byteLength":27120,
			"byteOffset":27120,
			"target":34962
		},
		{
			"buffer":0,
			"byteLength":18080,
			"byteOffset":54240,
			"target":34962
		},
		{
			"buffer":0,
			"byteLength":6624,
			"byteOffset":72320,
			"target":34963
		},
		{
			"buffer":0,
			"byteLength":11400,
			"byteOffset":78944,
			"target":34962
		},
		{
			"buffer":0,
			"byteLength":11400,
			"byteOffset":90344,
			"target":34962
		},
		{
			"buffer":0,
			"byteLength":7600,
			"byteOffset":101744,
			"target":34962
		},
		{
			"buffer":0,
			"byteLength":3252,
			"byteOffset":109344,
			"target":34963
		},
		{
			"buffer":0,
			"byteLength":2928,
			"byteOffset":112596,
			"target":34962
		},
		{
			"buffer":0,
			"byteLength":2928,
			"byteOffset":115524,
			"target":34962
		},
		{
			"buffer":0,
			"byteLength":1952,
			"byteOffset":118452,
			"target":34962
		},
		{
			"buffer":0,
			"byteLength":924,
			"byteOffset":120404,
			"target":34963
		},
		{
			"buffer":0,
			"byteLength":1284,
			"byteOffset":121328,
			"target":34962
		},
		{
			"buffer":0,
			"byteLength":1284,
			"byteOffset":122612,
			"target":34962
		},
		{
			"buffer":0,
			"byteLength":856,
			"byteOffset":123896,
			"target":34962
		},
		{
			"buffer":0,
			"byteLength":516,
			"byteOffset":124752,
			"target":34963
		},
		{
			"buffer":0,
			"byteLength":240,
			"byteOffset":125268,
			"target":34962
		},
		{
			"buffer":0,
			"byteLength":240,
			"byteOffset":125508,
			"target":34962
		},
		{
			"buffer":0,
			"byteLength":160,
			"byteOffset":125748,
			"target":34962
		},
		{
			"buffer":0,
			"byteLength":108,
			"byteOffset":125908,
			"target":34963
		}
	],
	"samplers":[
		{
			"magFilter":9728,
			"minFilter":9984
		}
	],
	"buffers":[
		{
			"byteLength":126016,
			"uri":"map.bin"
		}
	]
}
